<svg xmlns="http://www.w3.org/2000/svg" viewBox="0 0 1248 832" fill="none">
  <g transform="translate(0,832) scale(0.1,-0.1)">
    <path d="M5540 7554 c-456 -55 -826 -201 -1130 -448 -223 -180 -382 -387 -525 -681 -128 -263 -207 -578 -209 -835 -1 -101 0 -107 32 -166 24 -45 44 -67 75 -85 40 -22 54 -24 292 -30 395 -11 658 -10 696 2 39 13 85 53 104 90 8 14 26 84 40 155 32 156 54 221 110 339 139 288 411 428 747 385 278 -36 479 -214 532 -473 64 -308 -81 -629 -427 -949 -423 -390 -602 -612 -724 -898 -43 -102 -96 -270 -112 -360 -31 -172 -45 -421 -32 -563 17 -171 58 -245 168 -299 l68 -33 435 -3 c239 -2 521 1 625 5 183 9 192 10 244 38 56 31 100 85 119 145 6 19 18 89 28 155 32 234 86 396 177 534 63 95 221 253 352 351 177 132 248 192 364 304 329 322 505 650 563 1051 17 117 16 482 -1 605 -37 265 -126 521 -259 746 -182 308 -413 513 -774 689 -251 122 -521 196 -840 230 -183 19 -576 18 -738 -1z m765 -348 c299 -39 600 -136 813 -260 218 -128 422 -345 529 -561 33 -67 83 -188 83 -203 0 -5 -25 -3 -56 5 -49 13 -58 13 -79 -1 -14 -9 -27 -30 -30 -50 -14 -71 30 -111 160 -147 l60 -16 12 -59 c16 -76 29 -314 17 -314 -5 0 -70 10 -145 21 -75 12 -148 19 -163 15 -65 -16 -77 -153 -16 -186 11 -6 86 -24 167 -41 81 -16 150 -32 152 -35 16 -15 -62 -310 -110 -418 -17 -39 -24 -45 -42 -41 -75 18 -268 45 -317 45 -51 0 -61 -3 -79 -26 -23 -29 -27 -64 -11 -94 12 -23 44 -33 190 -61 63 -12 118 -25 122 -28 18 -16 -278 -330 -312 -331 -8 0 -91 16 -185 35 -93 19 -187 35 -208 35 -51 0 -87 -38 -87 -92 0 -60 29 -81 147 -102 133 -24 144 -27 141 -36 -2 -4 -43 -40 -93 -80 -49 -40 -111 -93 -137 -118 l-47 -45 -191 6 -192 7 -29 -29 c-34 -35 -38 -77 -10 -112 19 -24 92 -37 214 -38 31 -1 57 -3 57 -6 0 -3 -25 -46 -54 -96 -30 -50 -63 -107 -73 -128 l-18 -38 -248 -6 c-186 -5 -254 -10 -275 -21 -67 -35 -67 -137 -1 -172 22 -11 76 -14 239 -14 115 0 210 -2 210 -4 0 -2 -9 -46 -19 -97 -11 -52 -23 -122 -27 -156 l-7 -63 -503 0 -504 0 0 139 c0 235 36 446 103 600 91 211 218 373 518 662 280 269 364 359 444 479 192 287 259 585 204 898 -35 196 -151 411 -286 529 -187 162 -385 238 -653 250 -219 10 -384 -26 -547 -118 -96 -55 -260 -210 -333 -314 -72 -106 -143 -260 -184 -400 l-34 -120 -281 -3 c-263 -2 -281 -1 -281 15 0 80 67 331 130 490 98 245 190 384 380 573 155 155 251 227 406 304 220 110 456 167 784 190 107 7 476 -4 585 -18z" fill="#F4D03F" stroke="#1C1C1C" stroke-width="120" stroke-linejoin="round"/>
    <path d="M5685 2435 c-203 -37 -407 -181 -514 -362 -255 -431 -44 -983 434 -1140 116 -38 316 -44 436 -14 306 78 525 309 585 619 66 347 -133 715 -462 852 -140 58 -319 75 -479 45z m293 -332 c107 -27 231 -124 280 -220 66 -128 69 -271 10 -395 -119 -251 -449 -342 -675 -187 -76 53 -123 107 -161 187 -92 193 -33 422 141 546 130 92 239 111 405 69z" fill="#F4D03F" stroke="#1C1C1C" stroke-width="120" stroke-linejoin="round"/>
  </g>
</svg>
