<svg xmlns="http://www.w3.org/2000/svg" viewBox="0 0 1248 832" preserveAspectRatio="xMidYMid meet" fill="none">
  <g transform="translate(0,832) scale(0.1,-0.1)">
    <path d="M4026 6220 c-57 -17 -113 -89 -126 -160 l-6 -35 -28 42 c-78 117
-245 104 -307 -24 -17 -35 -24 -70 -27 -135 l-4 -88 -30 0 c-116 0 -186 -148
-148 -311 27 -115 113 -267 215 -377 41 -46 54 -68 64 -114 15 -69 58 -159
103 -212 39 -47 138 -113 183 -122 30 -5 34 -11 40 -46 14 -79 96 -141 206
-154 49 -6 58 -10 79 -43 42 -62 166 -205 227 -261 130 -119 325 -258 465
-330 l66 -34 -1 -366 c-2 -354 -1 -368 21 -450 71 -259 220 -402 472 -455 88
-18 101 -19 1459 -75 140 -6 257 -13 259 -15 3 -2 -1 -24 -7 -49 -27 -108 1
-217 77 -298 25 -26 50 -48 57 -48 7 0 25 -20 39 -44 39 -67 117 -132 175
-146 60 -14 144 -1 202 32 l39 22 45 -22 c24 -12 73 -27 109 -33 195 -36 406
118 423 309 8 90 -18 166 -75 221 l-46 44 125 -6 c68 -4 203 -9 299 -12 96 -4
190 -8 208 -11 l32 -5 0 -133 c0 -121 2 -135 20 -151 38 -35 81 -25 175 40 47
32 97 70 111 83 28 28 28 30 25 272 -1 160 -2 166 -25 186 -27 24 -53 26 -576
44 -162 6 -301 13 -307 15 -7 2 -13 19 -13 37 0 18 -7 52 -16 75 l-17 43 42
60 c70 100 103 183 109 277 4 75 2 86 -25 145 -59 124 -195 221 -374 267 l-74
19 3 108 c3 100 11 238 43 774 11 184 10 201 -9 292 -36 171 -117 304 -268
437 -201 179 -535 350 -809 417 -345 83 -814 43 -1300 -113 -197 -63 -337
-152 -426 -273 -52 -69 -72 -110 -103 -202 -28 -85 -31 -114 -56 -551 -10
-181 -21 -331 -24 -334 -15 -16 -231 172 -320 277 -107 128 -112 137 -93 157
49 55 69 156 46 233 -10 31 -8 42 9 76 22 43 42 162 42 250 0 74 25 119 102
185 35 30 71 63 80 74 29 33 32 78 10 127 -23 52 -65 82 -140 99 -106 25 -245
-36 -305 -133 l-31 -50 -19 43 c-28 66 -64 196 -93 337 -32 158 -55 220 -96
259 -52 51 -110 64 -182 43z m87 -89 c14 -5 34 -23 46 -40 22 -30 29 -58 75
-271 31 -140 66 -245 106 -316 16 -30 30 -55 30 -58 0 -2 -24 -13 -53 -25
-111 -45 -190 -162 -191 -279 0 -79 18 -102 34 -43 39 147 130 243 252 265 35
6 38 10 64 79 15 40 36 85 47 100 31 45 94 85 144 93 88 13 170 -36 143 -85
-6 -12 -14 -21 -18 -21 -4 0 -36 -27 -70 -60 -87 -82 -103 -123 -112 -280 -5
-105 -11 -135 -33 -183 -28 -61 -109 -154 -164 -188 -18 -11 -30 -25 -27 -31
10 -16 75 1 127 33 62 37 70 37 62 -3 -28 -132 -201 -248 -369 -248 -90 1
-166 41 -166 88 0 5 21 12 48 16 47 6 112 38 112 55 0 4 -48 10 -108 13 -87 3
-117 9 -162 29 -104 48 -183 153 -229 303 -16 51 -33 82 -64 115 -59 63 -122
158 -164 248 -28 59 -37 90 -40 146 -4 81 7 113 50 137 44 25 72 1 121 -105
57 -124 87 -173 139 -225 l44 -45 -29 -52 c-18 -31 -25 -53 -18 -53 7 0 40 26
75 58 81 74 207 145 315 179 47 14 89 29 94 34 13 12 -31 20 -93 17 l-55 -3
-32 100 c-89 276 -85 466 11 506 27 10 30 10 58 0z m-353 -86 c37 -19 56 -56
115 -221 26 -71 68 -173 94 -226 l48 -96 -41 -16 c-23 -9 -65 -34 -93 -56
l-53 -39 -28 42 c-131 193 -208 433 -173 540 13 38 62 87 87 87 8 0 28 -7 44
-15z m2996 -454 c165 -34 280 -92 399 -203 136 -127 230 -275 272 -428 31
-113 22 -495 -32 -1370 -27 -427 -35 -509 -60 -589 -39 -124 -111 -217 -211
-276 -143 -84 -305 -99 -834 -75 -124 5 -338 14 -477 20 -351 15 -431 37 -536
149 -57 61 -102 152 -122 247 -30 139 -16 692 40 1639 18 295 30 370 76 456
67 124 169 211 319 268 154 60 475 138 680 166 148 20 377 18 486 -4z m718
-289 c3 -5 -1 -9 -9 -9 -8 0 -12 4 -9 9 3 4 7 8 9 8 2 0 6 -4 9 -8z m520
-1983 c34 -27 34 -71 0 -121 -15 -21 -31 -38 -35 -38 -5 0 -9 41 -9 90 0 50 4
90 9 90 4 0 20 -9 35 -21z m47 -301 c112 -51 199 -160 199 -249 0 -25 -6 -54
-14 -64 -13 -19 -16 -18 -63 26 -96 90 -126 85 -65 -10 51 -78 66 -133 60 -225
-6 -87 -34 -144 -110 -218 -26 -26 -48 -51 -48 -57 0 -6 20 -11 45 -11 35 0
51 -6 78 -30 19 -16 40 -30 46 -30 17 0 13 32 -9 67 l-19 32 32 50 c18 27 37
50 44 50 20 1 61 -57 68 -98 23 -135 -97 -273 -257 -296 -66 -10 -144 16 -247
81 -80 51 -160 84 -203 84 -32 0 -20 -17 45 -63 109 -78 111 -95 11 -104 -89
-7 -132 20 -210 133 -47 67 -67 88 -82 86 -15 -2 -25 9 -43 44 -62 130 1 316
168 494 67 71 97 94 165 129 46 23 107 46 137 51 30 6 57 12 60 15 13 14 -25
29 -85 34 l-66 6 21 27 c12 14 45 38 74 53 46 24 61 26 132 23 59 -3 95 -11
136 -30z m256 -379 c-9 -33 23 -37 45 -6 17 23 27 27 69 27 l49 0 -6 -30 c-9
-41 19 -41 43 1 15 26 22 30 47 25 16 -3 39 -6 53 -6 20 0 22 -3 13 -19 -14
-27 -13 -31 9 -31 10 0 26 11 35 25 14 21 25 25 61 25 33 0 45 -4 45 -14 0 -8
-4 -18 -10 -21 -15 -9 -12 -45 4 -45 7 0 26 16 40 35 24 31 32 35 72 35 41 0
57 -11 34 -25 -15 -9 -12 -25 5 -31 9 -4 25 6 41 25 20 24 34 31 62 31 l36 0
-59 -60 -59 -60 -121 1 c-66 0 -219 6 -340 12 -248 14 -248 13 -198 86 32 46
38 50 30 20z m845 -182 l-4 -138 -62 -51 -61 -51 -6 129 -5 129 65 67 c36 37
68 64 72 60 3 -4 4 -69 1 -145z" fill="#F4D03F" stroke="none"/>
    <path d="M5833 5246 c-73 -23 -159 -99 -183 -161 -18 -48 4 -53 49 -12 66 59
101 70 229 72 69 1 116 5 124 13 17 17 -16 60 -65 83 -49 22 -95 23 -154 5z" fill="#F4D03F" stroke="none"/>
    <path d="M6768 5239 c-56 -9 -114 -42 -123 -70 -4 -11 -5 -23 -2 -26 3 -2 61
-5 129 -6 137 -2 182 -16 250 -76 45 -39 61 -40 52 -3 -33 134 -151 205 -306
181z" fill="#F4D03F" stroke="none"/>
    <path d="M5775 4948 c-119 -45 -223 -179 -265 -344 -24 -92 -27 -263 -6 -339
33 -126 107 -230 197 -280 47 -26 65 -29 134 -30 102 0 168 30 247 113 102
107 152 246 152 422 -1 207 -67 350 -199 429 -52 32 -66 35 -144 38 -47 1 -99
-2 -116 -9z m189 -112 c53 -22 111 -87 135 -151 46 -123 35 -319 -24 -440 -93
-191 -278 -243 -402 -113 -160 167 -98 599 100 697 50 25 141 28 191 7z" fill="#F4D03F" stroke="none"/>
    <path d="M5890 4573 c-59 -42 -90 -114 -90 -212 0 -76 15 -122 47 -153 38 -35
65 -41 107 -24 62 26 98 108 98 226 1 66 -22 131 -55 159 -27 21 -80 24 -107
4z m123 -94 c11 -29 -7 -79 -27 -79 -19 0 -29 50 -16 84 12 32 31 30 43 -5z" fill="#F4D03F" stroke="none"/>
    <path d="M6655 4900 c-88 -34 -193 -137 -247 -243 -55 -108 -75 -314 -42 -441
35 -138 118 -257 215 -311 48 -27 63 -30 139 -30 77 0 92 3 155 34 176 86 288
281 288 501 1 52 -6 108 -17 145 -43 144 -149 290 -248 339 -65 33 -167 35
-243 6z m213 -116 c91 -45 171 -172 192 -306 44 -281 -219 -578 -424 -479
-175 85 -242 381 -135 607 82 174 231 246 367 178z" fill="#F4D03F" stroke="none"/>
    <path d="M6736 4506 c-40 -42 -56 -94 -56 -182 1 -117 45 -184 121 -184 128 0
177 277 67 380 -14 13 -35 20 -61 20 -32 0 -46 -7 -71 -34z m152 -86 c2 -20
-4 -43 -13 -55 -15 -20 -15 -20 -30 0 -14 18 -13 62 2 88 12 21 38 0 41 -33z" fill="#F4D03F" stroke="none"/>
    <path d="M6895 3820 c-3 -6 -4 -19 0 -29 5 -16 -9 -22 -112 -49 -221 -58 -282
-66 -493 -67 -217 0 -283 10 -369 56 -65 34 -81 36 -81 8 0 -15 -6 -20 -22
-19 -41 4 -48 0 -48 -23 0 -33 29 -56 90 -72 28 -8 58 -22 65 -32 19 -25 53
-137 75 -245 26 -127 44 -175 88 -233 72 -95 157 -127 302 -113 245 23 471
275 536 599 23 115 26 120 68 107 44 -14 68 -5 64 23 -2 14 -26 35 -67 60 -67
40 -85 46 -96 29z m-82 -228 c-116 -142 -462 -219 -634 -140 -51 23 -139 96
-139 116 0 4 100 7 223 7 239 1 354 14 497 58 88 27 100 18 53 -41z" fill="#F4D03F" stroke="none"/>
    <path d="M6515 2888 c-58 -25 -83 -31 -145 -30 -41 0 -90 5 -107 11 -45 13
-50 -3 -10 -33 95 -73 217 -90 277 -39 32 27 80 94 80 113 0 15 -18 11 -95
-22z" fill="#F4D03F" stroke="none"/>
  </g>
</svg>
