<?xml version="1.0" standalone="no"?>
<!DOCTYPE svg PUBLIC "-//W3C//DTD SVG 20010904//EN" "http://www.w3.org/TR/2001/REC-SVG-20010904/DTD/svg10.dtd">
<svg version="1.0" xmlns="http://www.w3.org/2000/svg" width="1248.000000pt" height="832.000000pt" viewBox="0 0 1248.000000 832.000000" preserveAspectRatio="xMidYMid meet">
<g transform="translate(0.000000,832.000000) scale(0.100000,-0.100000)" fill="#F4D03F" stroke="#1C1C1C" stroke-width="40">
<path d="M6195 6680 c-96 -30 -199 -127 -228 -215 l-14 -40 -149 -5 c-134 -4
-153 -7 -186 -28 -21 -13 -45 -36 -55 -52 l-17 -29 -305 -3 c-292 -3 -309 -5
-361 -26 -30 -13 -73 -35 -95 -50 -61 -42 -131 -142 -155 -220 -20 -66 -20
-82 -18 -1852 l3 -1785 33 -68 c59 -118 175 -210 302 -237 41 -8 397 -10 1365
-8 l1310 3 75 36 c126 60 211 166 239 297 15 74 16 3483 0 3567 -24 132 -115
251 -237 308 l-67 32 -312 3 -311 3 -26 33 c-44 58 -84 70 -240 76 l-138 5
-20 52 c-26 71 -96 146 -166 179 -62 30 -172 41 -227 24z m172 -145 c75 -38
123 -120 123 -212 l0 -33 183 0 c142 0 187 -3 203 -14 17 -13 19 -26 18 -144
-2 -156 -13 -181 -79 -182 -26 0 -35 3 -27 9 8 4 13 12 12 17 0 5 7 10 17 12
15 3 16 1 3 -8 -13 -10 -13 -11 0 -7 8 2 16 11 18 20 3 14 -5 16 -50 13 -29
-2 -98 -5 -153 -6 -55 -2 -90 -5 -77 -7 12 -2 22 -8 22 -12 0 -4 7 -8 15 -8 8
0 15 5 15 10 0 5 7 4 15 -3 8 -6 19 -9 24 -6 5 4 12 2 16 -4 3 -5 21 -10 38
-10 24 0 28 3 17 10 -13 8 -13 10 2 10 9 0 20 -5 23 -10 4 -6 11 -8 16 -5 5 4
9 1 9 -4 0 -8 -164 -11 -532 -11 l-532 0 -23 22 c-22 20 -23 29 -23 151 0 107
3 134 17 149 14 16 35 18 202 18 l187 0 11 70 c14 94 48 144 116 176 66 31
110 30 174 -1z m-889 -423 l42 -5 0 -51 c0 -110 54 -206 133 -235 19 -7 229
-11 626 -11 l597 0 44 23 c68 34 102 96 108 197 l5 80 274 0 c308 0 315 -1
377 -70 19 -21 39 -56 45 -77 8 -26 11 -585 11 -1788 l0 -1751 -33 -54 c-23
-39 -44 -60 -77 -77 l-45 -22 -1260 -7 c-920 -5 -1276 -3 -1320 5 -73 14 -128
51 -163 110 l-27 46 -3 1740 c-2 1269 0 1751 8 1780 24 85 84 144 166 164 38
10 408 12 492 3z"/>
<path d="M6234 6476 c-72 -32 -95 -112 -51 -177 41 -62 100 -75 158 -36 61 41
76 105 39 165 -19 31 -72 63 -102 62 -7 -1 -27 -7 -44 -14z m84 -78 c27 -27 0
-88 -39 -88 -40 0 -65 60 -37 88 7 7 24 12 38 12 14 0 31 -5 38 -12z"/>
<path d="M5853 5992 c-23 -2 -33 -8 -32 -20 0 -11 3 -12 6 -4 2 6 9 12 14 12
6 0 7 -4 4 -10 -9 -15 38 -12 54 3 11 10 13 10 7 0 -5 -10 10 -13 66 -13 45 0
79 5 87 13 11 10 13 10 7 0 -10 -17 13 -16 57 2 42 17 61 19 52 5 -3 -5 -2
-10 3 -10 6 0 13 7 16 16 6 14 -10 16 -151 13 -87 -2 -173 -5 -190 -7z"/>
<path d="M6145 5970 c-3 -5 -1 -10 4 -10 6 0 11 5 11 10 0 6 -2 10 -4 10 -3 0
-8 -4 -11 -10z"/>
<path d="M6808 5484 c-26 -13 -82 -77 -286 -323 -48 -58 -154 -186 -237 -284
-82 -99 -156 -187 -163 -196 -12 -14 -17 -12 -49 24 -144 160 -221 240 -248
256 -61 38 -149 14 -192 -50 -28 -42 -31 -114 -5 -153 9 -14 78 -91 152 -170
74 -79 162 -174 195 -212 33 -37 72 -74 87 -82 35 -18 82 -18 117 1 30 15 803
932 834 988 37 68 12 156 -55 197 -39 24 -111 26 -150 4z"/>
<path d="M5157 3833 c-4 -3 -7 -35 -7 -70 l0 -63 1125 0 1125 0 0 70 0 70
-1118 0 c-615 0 -1122 -3 -1125 -7z"/>
<path d="M5150 3390 l0 -70 268 -2 c147 -2 653 -2 1125 0 l857 2 0 70 0 70
-1125 0 -1125 0 0 -70z"/>
<path d="M5150 3020 l0 -70 1124 0 1124 0 4 63 c2 34 2 65 0 70 -2 4 -509 7
-1128 7 l-1124 0 0 -70z"/>
<path d="M5154 2706 c-3 -7 -4 -38 -2 -67 l3 -54 578 -3 577 -2 0 70 0 70
-575 0 c-478 0 -577 -2 -581 -14z"/>
</g>
</svg>
