<?xml version="1.0" standalone="no"?>
<!DOCTYPE svg PUBLIC "-//W3C//DTD SVG 20010904//EN"
 "http://www.w3.org/TR/2001/REC-SVG-20010904/DTD/svg10.dtd">
<svg version="1.0" xmlns="http://www.w3.org/2000/svg"
 width="1024.000000pt" height="1024.000000pt" viewBox="0 0 1024.000000 1024.000000"
 preserveAspectRatio="xMidYMid meet">

<g transform="translate(0.000000,1024.000000) scale(0.100000,-0.100000)">
<path fill="#1C1C1C" stroke="#1C1C1C" stroke-width="40" d="M4960 8143 c-81 -6 -210 -33 -283 -59 -146 -52 -309 -161 -406 -270
-105 -117 -211 -319 -241 -456 l-13 -56 -91 -1 c-193 0 -354 -76 -508 -239
-164 -174 -301 -449 -361 -722 -44 -199 -51 -267 -52 -485 0 -273 24 -443 101
-707 37 -126 141 -413 175 -480 l19 -37 -46 -20 c-66 -29 -122 -77 -159 -135
-58 -93 -304 -611 -321 -676 -19 -77 -13 -180 14 -244 l18 -41 -48 -101 c-26
-56 -52 -124 -58 -150 -24 -103 16 -213 110 -305 58 -57 94 -76 778 -415 394
-196 754 -374 799 -395 145 -68 256 -85 360 -54 101 30 166 99 228 243 l34 77
66 26 c89 36 140 73 186 134 45 61 313 611 330 678 6 27 9 81 7 123 l-5 75 79
40 c165 83 314 194 468 348 434 435 959 1157 1191 1636 325 673 285 1167 -135
1647 -420 481 -1371 961 -2016 1018 -113 10 -131 10 -220 3z m250 -263 c242
-29 599 -149 911 -305 346 -174 617 -360 814 -559 172 -173 258 -307 321 -496
26 -80 28 -95 28 -250 0 -153 -3 -173 -32 -282 -37 -137 -105 -313 -173 -451
-265 -528 -964 -1423 -1324 -1695 -69 -52 -267 -156 -315 -167 -37 -7 -1839
899 -1857 934 -11 24 -9 26 63 66 244 132 473 378 577 618 63 148 89 260 94
422 6 160 -9 262 -57 398 l-29 82 27 27 27 28 59 -90 c56 -84 182 -220 271
-291 86 -69 256 -172 414 -253 654 -332 1147 -383 1581 -166 l76 38 58 -39
c68 -46 106 -50 141 -14 34 33 33 76 -3 116 l-29 32 108 105 c118 113 219 249
219 294 0 34 -24 58 -58 58 -20 0 -47 -21 -112 -88 -185 -192 -399 -312 -657
-368 -128 -28 -347 -24 -505 10 -244 52 -405 109 -673 241 -244 120 -384 212
-500 330 -148 150 -203 266 -212 455 -12 246 84 526 264 769 66 90 76 109 76
145 0 23 -5 51 -12 64 -18 34 -70 62 -116 62 -34 0 -45 -7 -95 -57 -70 -73
-168 -220 -226 -340 -25 -51 -48 -93 -53 -93 -4 0 -16 8 -25 19 -16 18 -16 23
4 102 29 114 96 251 159 327 178 214 438 302 771 262z m-1185 -841 c61 -16
129 -70 155 -125 28 -58 36 -161 22 -287 -9 -81 -13 -91 -53 -144 -56 -72
-162 -161 -261 -219 -85 -50 -128 -93 -128 -128 0 -34 36 -74 73 -81 28 -5
105 13 168 39 40 17 72 -239 49 -395 -14 -100 -50 -217 -96 -318 -24 -52 -31
-77 -24 -86 27 -32 -210 -277 -350 -363 -46 -29 -90 -52 -96 -52 -24 0 -131
306 -174 500 -52 235 -66 533 -35 749 71 482 324 875 594 921 49 8 92 5 156
-11z m-51 -2935 c401 -201 560 -285 584 -310 57 -60 52 -80 -107 -406 -159
-326 -168 -339 -270 -346 l-57 -4 -504 252 c-278 139 -518 264 -533 278 -42
40 -59 78 -59 138 -1 50 11 78 137 337 144 297 171 337 226 337 21 0 218 -93
583 -276z m-111 -1224 c477 -236 867 -436 867 -442 0 -23 -40 -78 -64 -89 -61
-28 -51 -32 -1345 614 -167 84 -317 165 -333 180 -33 34 -37 78 -11 132 9 19
17 35 18 35 1 0 392 -193 868 -430z"/>
</g>

</svg>
