<?xml version="1.0" standalone="no"?>
<!DOCTYPE svg PUBLIC "-//W3C//DTD SVG 20010904//EN"
 "http://www.w3.org/TR/2001/REC-SVG-20010904/DTD/svg10.dtd">
<svg version="1.0" xmlns="http://www.w3.org/2000/svg"
 width="1024.000000pt" height="1024.000000pt" viewBox="0 0 1024.000000 1024.000000"
 preserveAspectRatio="xMidYMid meet">

<g transform="translate(0.000000,1024.000000) scale(0.100000,-0.100000)">
<path fill="#1C1C1C" stroke="#1C1C1C" stroke-width="40" d="M5280 7745 c-253 -35 -556 -133 -863 -280 -111 -53 -127 -73 -103
-130 18 -42 20 -42 211 -50 447 -18 759 -95 1030 -257 135 -81 137 -56 -16
-223 -196 -214 -208 -229 -215 -265 -7 -30 -2 -37 82 -116 l89 -83 -145 -148
c-80 -81 -572 -580 -1095 -1108 -916 -926 -1278 -1293 -1716 -1740 -242 -246
-249 -259 -257 -431 -7 -162 40 -285 152 -395 178 -177 410 -223 608 -123 64
32 61 29 535 584 214 250 564 659 778 909 215 250 457 534 539 630 82 97 218
255 301 351 84 96 244 283 356 415 112 132 266 313 343 402 l138 163 55 -50
c36 -33 63 -50 80 -50 14 0 67 17 117 37 163 66 276 48 329 -51 19 -36 22 -56
22 -166 0 -95 4 -130 15 -146 23 -33 369 -352 420 -387 42 -30 50 -32 135 -32
131 0 151 12 325 202 80 86 214 231 299 322 178 191 207 229 222 285 31 114 4
217 -79 298 -112 109 -385 338 -410 345 -14 3 -54 -1 -88 -10 -216 -58 -327
30 -308 243 l7 68 -41 43 -40 44 53 56 c44 46 55 64 60 103 11 70 -8 122 -64
176 -128 124 -385 347 -418 362 -76 35 -151 12 -220 -66 -22 -25 -44 -46 -48
-46 -4 0 -26 15 -49 33 -135 110 -337 213 -491 251 -185 46 -435 58 -635 31z
m480 -146 c242 -40 445 -149 695 -375 129 -116 415 -378 508 -464 l49 -46 2
-89 c1 -75 6 -100 29 -150 15 -33 47 -80 70 -104 23 -24 37 -41 30 -37 -6 3
-14 2 -18 -4 -9 -15 -43 -6 -59 15 -13 18 -14 18 -20 -3 -4 -12 -12 -20 -17
-17 -13 9 -11 -9 4 -25 10 -12 9 -12 -4 -2 -9 6 -19 9 -23 5 -9 -9 -3 28 7 44
4 7 2 23 -4 35 -8 14 -14 18 -16 11 -3 -9 -9 -8 -21 4 -17 16 -18 69 -9 258
l2 39 -236 211 c-437 389 -567 479 -799 553 -324 104 -673 103 -1089 -3 -57
-14 -108 -24 -114 -22 -24 8 252 98 403 132 233 52 447 63 630 34z m1017 -286
c162 -145 283 -260 283 -268 0 -3 -16 -26 -36 -51 l-36 -44 -77 67 c-154 133
-331 297 -331 306 0 14 64 87 77 87 7 0 61 -44 120 -97z m285 -998 c3 -13 1
-22 -3 -19 -9 5 -13 44 -5 44 2 0 6 -11 8 -25z m585 -107 c60 -51 125 -107
146 -124 l38 -31 -53 -50 c-29 -27 -77 -71 -107 -99 -138 -127 -477 -511 -550
-624 -19 -30 -36 -57 -38 -59 -1 -2 -67 59 -147 134 l-144 138 91 100 c51 55
184 200 297 321 113 122 238 258 279 304 41 45 75 82 77 82 2 0 52 -42 111
-92z m-1884 -109 c84 -78 153 -144 154 -148 2 -3 -173 -211 -388 -461 -215
-250 -509 -593 -653 -761 -143 -168 -369 -431 -501 -584 -132 -153 -321 -373
-420 -489 -99 -117 -301 -354 -450 -526 -148 -173 -320 -375 -383 -448 -63
-73 -127 -142 -144 -152 -17 -10 -58 -23 -92 -30 -118 -22 -227 15 -336 116
-114 106 -148 229 -108 384 14 55 -103 -66 1678 1740 933 946 1483 1500 1488
1500 2 0 72 -64 155 -141z m2157 -179 c0 -23 -7 -55 -16 -73 -20 -39 -184
-222 -437 -488 -153 -161 -194 -199 -221 -205 -66 -12 -67 -3 -4 81 71 95 122
155 282 330 142 155 378 395 388 395 5 0 8 -18 8 -40z"/>
</g>

</svg>
