<?xml version="1.0" standalone="no"?>
<!DOCTYPE svg PUBLIC "-//W3C//DTD SVG 20010904//EN" "http://www.w3.org/TR/2001/REC-SVG-20010904/DTD/svg10.dtd">
<svg version="1.0" xmlns="http://www.w3.org/2000/svg" width="1248.000000pt" height="832.000000pt" viewBox="0 0 1248.000000 832.000000" preserveAspectRatio="xMidYMid meet">
  <!-- Cerchio giallo con bordo nero -->
  <g transform="translate(0.000000,832.000000) scale(0.100000,-0.100000)" fill="#F4D03F" stroke="#1C1C1C" stroke-width="40">
    <path d="M6065 6544 c-16 -2 -70 -9 -120 -15 -490 -59 -998 -359 -1310 -773 -221 -295 -344 -584 -401 -941 -21 -131 -23 -416 -5 -545 52 -370 182 -693 389 -969 524 -700 1435 -983 2277 -706 119 39 345 153 472 238 592 396 927 1051 900 1757 -21 531 -226 1002 -596 1370 -299 297 -680 494 -1097 566 -84 14 -442 27 -509 18z m305 -234 c294 -24 559 -110 808 -261 226 -138 448 -361 595 -599 126 -205 217 -469 248 -723 17 -143 6 -445 -20 -570 -78 -362 -234 -650 -489 -905 -227 -227 -469 -373 -757 -456 -204 -58 -294 -70 -530 -70 -190 0 -222 3 -335 27 -344 73 -629 218 -868 441 -335 313 -532 721 -573 1188 -33 369 75 786 286 1113 140 217 336 409 553 544 285 177 561 259 937 279 17 1 82 -3 145 -8z"/>
  </g>
  <!-- Casa nera -->
  <g transform="translate(0.000000,832.000000) scale(0.100000,-0.100000)" fill="#1C1C1C" stroke="none">
    <path d="M6069 5611 c-63 -37 -160 -98 -217 -135 -56 -36 -104 -66 -107 -66 -2 0 -5 33 -7 73 l-3 72 -160 0 -160 0 -5 -180 -5 -180 -220 -136 c-128 -80 -234 -153 -252 -175 -29 -33 -33 -44 -33 -94 0 -66 24 -110 79 -147 40 -27 111 -31 155 -8 15 8 29 15 31 15 1 0 1 -264 -1 -587 -3 -504 -1 -591 12 -610 l14 -23 1041 0 c698 0 1047 3 1060 10 18 10 19 28 19 610 0 330 2 600 4 600 2 0 17 -7 32 -15 44 -23 115 -19 154 8 58 39 75 71 75 141 0 79 -25 114 -121 172 -98 59 -386 237 -776 482 -186 116 -351 218 -367 227 -17 8 -52 15 -79 15 -43 0 -64 -9 -163 -69z m197 -321 c14 -6 224 -133 465 -282 l439 -272 0 -39 0 -39 -26 16 c-29 20 -626 386 -759 467 -81 48 -96 54 -146 54 -55 0 -63 -4 -295 -145 -132 -79 -329 -200 -439 -267 l-200 -123 -3 32 c-4 40 -3 41 197 165 86 53 269 168 407 255 223 140 303 186 326 188 4 0 19 -5 34 -10z m200 -284 c164 -98 338 -206 632 -390 l72 -45 0 -501 0 -500 -315 0 -315 0 0 365 0 366 -25 24 -24 25 -249 0 c-231 0 -252 -1 -273 -19 l-24 -19 -5 -369 -5 -368 -312 -3 -313 -2 0 232 c0 128 -3 350 -6 493 -3 143 -2 265 3 271 12 16 785 495 873 541 57 30 88 19 286 -101z"/>
  </g>
</svg>
