<?xml version="1.0" standalone="no"?>
<!DOCTYPE svg PUBLIC "-//W3C//DTD SVG 20010904//EN" "http://www.w3.org/TR/2001/REC-SVG-20010904/DTD/svg10.dtd">
<svg version="1.0" xmlns="http://www.w3.org/2000/svg" width="1184.000000pt" height="864.000000pt" viewBox="0 0 1184.000000 864.000000" preserveAspectRatio="xMidYMid meet">
<g transform="translate(0.000000,864.000000) scale(0.100000,-0.100000)" fill="#F4D03F" stroke="#1C1C1C" stroke-width="40">
<path d="M5644 8365 c-856 -82 -1617 -401 -2297 -963 -146 -120 -412 -393
-543 -557 -408 -511 -682 -1102 -808 -1740 -59 -303 -81 -563 -73 -890 14
-617 157 -1181 438 -1731 322 -630 791 -1151 1394 -1549 568 -375 1163 -584
1847 -650 199 -19 620 -19 798 0 833 89 1513 368 2175 894 152 121 450 417
590 586 124 151 326 450 416 615 410 756 567 1583 464 2440 -89 735 -383 1434
-850 2020 -157 198 -443 484 -635 636 -617 489 -1315 781 -2105 879 -179 22
-626 28 -811 10z m791 -359 c872 -106 1652 -497 2270 -1137 412 -429 722 -968
884 -1539 223 -791 175 -1657 -133 -2410 -308 -749 -888 -1403 -1621 -1825
-341 -197 -826 -371 -1195 -429 -292 -46 -352 -51 -645 -50 -384 0 -607 28
-953 120 -660 174 -1249 523 -1737 1025 -596 615 -951 1393 -1025 2249 -13
150 -13 484 0 630 23 255 84 565 152 778 186 583 492 1087 918 1512 329 329
747 613 1173 797 342 147 732 246 1134 288 175 18 595 13 778 -9z"/>
<path d="M5240 6833 c-8 -3 -114 -41 -235 -85 -768 -279 -728 -262 -813 -352
-64 -69 -105 -144 -122 -223 -7 -33 -11 -643 -13 -1848 -2 -1724 -1 -1803 16
-1860 24 -77 51 -130 93 -182 70 -86 109 -105 599 -293 256 -99 482 -182 501
-186 50 -9 115 19 163 71 46 50 70 94 102 190 l24 70 3 2160 c3 2375 6 2227
-57 2362 -63 133 -173 208 -261 176z m-22 -2350 c70 -52 91 -137 50 -208 -66
-114 -231 -105 -282 17 -31 76 -1 159 74 200 44 24 120 20 158 -9z"/>
<path d="M5810 6330 l0 -140 493 -2 492 -3 5 -555 5 -555 140 0 140 0 3 698 2
697 -640 0 -640 0 0 -140z"/>
<path d="M7410 5005 l0 -215 -800 0 -800 0 2 -452 3 -453 798 -3 797 -2 0
-223 0 -222 453 453 452 453 -445 439 c-245 242 -448 440 -452 440 -5 0 -8
-97 -8 -215z"/>
<path d="M6804 3589 c-3 -6 -5 -261 -3 -567 l4 -557 -498 -3 -498 -2 3 -143 3
-142 638 -3 637 -2 0 715 0 715 -139 0 c-90 0 -142 -4 -147 -11z"/>
</g>
</svg>
