<?xml version="1.0" standalone="no"?>
<!DOCTYPE svg PUBLIC "-//W3C//DTD SVG 20010904//EN" "http://www.w3.org/TR/2001/REC-SVG-20010904/DTD/svg10.dtd">
<svg version="1.0" xmlns="http://www.w3.org/2000/svg" width="1248.000000pt" height="832.000000pt" viewBox="0 0 1248.000000 832.000000" preserveAspectRatio="xMidYMid meet">
<g transform="translate(0.000000,832.000000) scale(0.100000,-0.100000)" fill="#1C1C1C" stroke="#F4D03F" stroke-width="40">
<path d="M6057 6679 c-545 -45 -1077 -331 -1422 -764 -218 -274 -373 -640
-420 -994 -17 -125 -19 -378 -5 -506 25 -212 108 -484 207 -677 255 -496 736
-887 1265 -1028 214 -57 334 -73 543 -73 189 0 295 11 460 49 357 81 729 287
982 545 315 321 501 691 569 1134 20 132 23 430 5 555 -97 674 -500 1242
-1096 1547 -318 162 -728 242 -1088 212z m395 -305 c210 -29 383 -84 577 -184
143 -74 263 -163 399 -294 704 -682 709 -1778 12 -2475 -434 -434 -1115 -601
-1719 -421 -303 90 -616 299 -826 550 -127 152 -252 378 -314 567 -123 375
-111 807 34 1168 156 387 414 681 784 892 295 169 706 245 1053 197z"/>
<path d="M5550 5701 c-87 -27 -174 -104 -213 -189 -22 -47 -22 -48 -22 -872
l0 -825 29 -63 c31 -67 81 -119 147 -153 53 -27 179 -37 235 -19 48 15 220
107 859 460 83 46 188 104 235 129 356 196 373 206 420 258 58 63 80 123 80
214 0 146 -64 235 -233 327 -266 144 -444 241 -672 367 -448 247 -653 354
-697 365 -50 11 -132 12 -168 1z m259 -243 c64 -33 125 -67 136 -73 11 -7 83
-46 160 -88 77 -41 230 -124 340 -184 110 -60 295 -161 410 -223 117 -64 224
-128 242 -147 41 -43 51 -102 28 -160 -18 -45 -31 -56 -145 -118 -41 -23 -124
-69 -185 -102 -60 -33 -135 -74 -165 -90 -60 -32 -286 -157 -475 -263 -66 -37
-200 -111 -298 -164 -195 -105 -231 -115 -294 -76 -64 39 -61 1 -69 852 -6
770 -6 775 14 815 28 55 74 83 136 83 41 0 68 -10 165 -62z"/>
</g>
</svg>
