<?xml version="1.0" standalone="no"?>
<!DOCTYPE svg PUBLIC "-//W3C//DTD SVG 20010904//EN"
 "http://www.w3.org/TR/2001/REC-SVG-20010904/DTD/svg10.dtd">
<svg version="1.0" xmlns="http://www.w3.org/2000/svg"
 width="1248.000000pt" height="832.000000pt" viewBox="0 0 1248.000000 832.000000"
 preserveAspectRatio="xMidYMid meet">

<g transform="translate(0.000000,832.000000) scale(0.100000,-0.100000)">
<path fill="#1C1C1C" stroke="#1C1C1C" stroke-width="40" d="M7562 6248 c-108 -106 -1114 -1110 -2234 -2232 -1961 -1963 -2038
-2041 -2038 -2076 0 -25 7 -43 23 -58 l23 -22 2246 0 2247 0 20 26 21 27 0
2239 0 2239 -25 24 c-15 16 -35 25 -55 25 -27 0 -58 -26 -228 -192z m162 -136
c-1 -48 -2 -187 -3 -309 l-1 -223 -178 0 c-191 0 -202 -3 -202 -50 0 -47 11
-50 202 -50 l178 0 0 -90 0 -90 -46 0 c-57 0 -84 -14 -84 -43 0 -35 19 -47 77
-47 54 0 56 -1 56 -45 0 -8 -1 -44 -2 -80 l-1 -65 -53 0 c-57 0 -77 -12 -77
-45 0 -33 20 -45 77 -45 l53 0 0 -90 0 -90 -178 0 c-125 0 -182 -4 -190 -12
-19 -19 -15 -66 7 -78 11 -6 91 -10 189 -10 167 0 170 0 176 -22 7 -30 7 -83
0 -130 l-7 -38 -58 0 c-49 0 -59 -3 -64 -20 -13 -42 2 -58 65 -65 l60 -7 0
-89 0 -88 -62 -3 c-61 -3 -63 -4 -66 -31 -5 -44 13 -57 79 -57 l59 0 0 -74 c0
-103 -2 -106 -64 -106 -56 0 -76 -12 -76 -45 0 -33 20 -45 77 -45 l53 0 0 -90
0 -90 -178 0 c-125 0 -182 -4 -190 -12 -16 -16 -15 -63 1 -77 8 -6 81 -12 193
-13 l179 -3 1 -65 c1 -107 -1 -110 -56 -110 -52 0 -80 -18 -80 -49 0 -29 21
-40 80 -43 51 -3 55 -5 54 -28 0 -14 -1 -55 -2 -92 l-2 -68 -60 0 c-55 0 -60
-2 -66 -24 -3 -13 -1 -34 6 -45 9 -17 20 -21 65 -21 53 0 54 -1 60 -32 4 -18
5 -58 3 -88 l-3 -55 -59 -5 c-69 -6 -87 -23 -68 -64 10 -23 17 -26 67 -26 l55
0 0 -90 0 -90 -178 0 c-191 0 -202 -3 -202 -50 0 -47 11 -50 202 -50 l178 0 0
-220 0 -220 -280 0 -280 0 0 158 c0 177 -8 206 -58 200 -44 -5 -52 -37 -52
-205 l0 -153 -95 0 -95 0 0 53 c0 60 -12 77 -52 77 -34 0 -48 -24 -48 -83 l0
-44 -73 -6 c-111 -10 -117 -6 -117 63 0 52 -3 60 -22 66 -23 8 -48 7 -58 -3
-3 -2 -7 -32 -10 -64 l-5 -60 -90 -2 -90 -1 -3 54 c-4 64 -14 80 -53 80 -35 0
-49 -24 -49 -83 l0 -44 -87 -5 c-49 -3 -91 -3 -95 -1 -5 2 -8 78 -8 168 0 164
0 165 -25 181 -23 15 -27 15 -50 0 -24 -16 -25 -18 -27 -184 l-3 -167 -90 0
-90 0 -5 55 c-6 68 -14 80 -50 80 -36 0 -50 -23 -50 -84 l0 -46 -70 -2 c-38
-1 -80 -2 -92 -2 -21 -1 -23 4 -24 51 -2 70 -8 83 -42 83 -41 0 -52 -17 -52
-80 l0 -55 -92 2 -93 2 -3 53 c-4 59 -15 78 -46 78 -34 0 -46 -20 -46 -77 0
-51 -1 -52 -32 -57 -18 -3 -62 -5 -98 -3 l-65 2 -5 168 c-5 152 -7 170 -24
183 -23 16 -35 17 -56 4 -12 -7 -16 -43 -20 -182 l-5 -173 -97 -1 -98 -2 0 57
c0 61 -11 81 -46 81 -31 0 -42 -19 -46 -78 l-3 -52 -97 -5 -98 -5 0 170 0 170
-25 16 c-21 13 -31 15 -50 6 -24 -11 -25 -12 -27 -184 l-3 -173 -315 -3 -315
-2 1375 1376 c756 757 1699 1702 2095 2099 396 398 722 723 725 724 3 1 4 -38
4 -87z"/>
<path fill="#1C1C1C" stroke="#1C1C1C" stroke-width="40" d="M6103 3547 c-761 -761 -733 -728 -678 -782 l24 -25 711 0 c681 0 711
1 729 19 18 18 19 48 25 562 6 457 5 704 -3 862 -1 37 -34 67 -73 67 -30 0
-94 -61 -735 -703z m657 -107 l0 -550 -551 0 -550 0 547 550 c301 303 549 550
551 550 2 0 3 -247 3 -550z"/>
</g>

</svg>
