<?xml version="1.0" standalone="no"?>
<!DOCTYPE svg PUBLIC "-//W3C//DTD SVG 20010904//EN" "http://www.w3.org/TR/2001/REC-SVG-20010904/DTD/svg10.dtd">
<svg version="1.0" xmlns="http://www.w3.org/2000/svg" width="1248.000000pt" height="832.000000pt" viewBox="0 0 1248.000000 832.000000" preserveAspectRatio="xMidYMid meet">
<g transform="translate(0.000000,832.000000) scale(0.100000,-0.100000)" fill="#1C1C1C" stroke="none">
<path d="M7520 7543 c-338 -33 -550 -74 -802 -157 -727 -239 -1352 -722 -1771 -1367 -308 -476 -474 -952 -527 -1511 -16 -166 -8 -631 14 -788 34 -239 79 -427 156 -653 367 -1071 1278 -1905 2374 -2171 1011 -246 2066 -15 2881 632 599 475 1024 1154 1191 1901 65 286 79 426 78 776 0 271 -3 327 -22 449 -118 740 -403 1325 -908 1863 -543 580 -1324 953 -2139 1023 -110 9 -443 11 -525 3z m635 -448 c568 -90 1009 -279 1435 -614 141 -111 401 -376 505 -515 333 -449 532 -947 586 -1471 16 -155 16 -478 0 -625 -23 -219 -85 -488 -158 -690 -207 -576 -579 -1064 -1083 -1421 -537 -381 -1184 -567 -1840 -529 -668 38 -1279 294 -1801 755 -359 317 -652 764 -819 1249 -104 305 -151 599 -151 954 0 199 10 323 37 487 74 440 265 889 529 1244 511 686 1228 1096 2085 1190 126 14 555 5 675 -14z"/>
<path d="M7645 6340 c-373 -39 -719 -290 -876 -637 -48 -105 -67 -167 -90 -287 -30 -155 -23 -384 14 -529 122 -465 481 -782 957 -847 241 -33 549 52 758 209 220 167 385 429 438 697 22 109 24 345 5 454 -39 219 -150 444 -297 599 -238 253 -568 376 -909 341z"/>
<path d="M7144 3765 c-164 -26 -302 -68 -434 -135 -369 -186 -672 -549 -781 -937 -26 -93 -23 -207 6 -263 25 -49 133 -159 237 -242 393 -313 875 -516 1328 -557 425 -39 828 17 1200 168 292 119 621 339 828 554 109 114 118 181 53 376 -182 546 -651 954 -1191 1036 -127 20 -1121 20 -1246 0z"/>
</g>
</svg>
